<?xml version="1.0" encoding="UTF-8"?>
<svg id="uuid-ee7a5822-68c1-4b12-b045-c39bbfafd5a4" data-name="Layer 1" xmlns="http://www.w3.org/2000/svg" xmlns:xlink="http://www.w3.org/1999/xlink" viewBox="0 0 292.78 212.15">
  <defs>
    <style>
      .uuid-b8356f3a-22b7-4bc5-ace3-70d102ce1218 {
        fill: #fff;
      }

      .uuid-b8356f3a-22b7-4bc5-ace3-70d102ce1218, .uuid-4e7ca654-872e-4cac-8641-eb0f51b1d407 {
        stroke-width: 0px;
      }

      .uuid-4e7ca654-872e-4cac-8641-eb0f51b1d407 {
        fill: url(#uuid-3211d3bd-7e49-435f-aea0-e661f5abd1db);
        fill-rule: evenodd;
      }
    </style>
    <linearGradient id="uuid-3211d3bd-7e49-435f-aea0-e661f5abd1db" x1="0" y1="106.07" x2="292.78" y2="106.07" gradientUnits="userSpaceOnUse">
      <stop offset="0" stop-color="#00aeef"/>
      <stop offset="1" stop-color="#1c75bc"/>
    </linearGradient>
  </defs>
  <rect class="uuid-b8356f3a-22b7-4bc5-ace3-70d102ce1218" x="-353.61" y="-393.93" width="1000" height="1000"/>
  <path class="uuid-4e7ca654-872e-4cac-8641-eb0f51b1d407" d="m146.48,0c35.73,0,67.37,17.86,86.59,44.91h-18.2c-1.7-6.12-7.32-10.55-13.95-10.55-8,0-14.29,6.46-14.29,14.29s6.29,14.46,14.29,14.46c6.63,0,12.25-4.59,13.95-10.72h42.19c3.06-6.12,9.36-10.55,16.84-10.55,10.38,0,18.88,8.51,18.88,18.88s-8.51,18.88-18.88,18.88c-7.49,0-13.78-4.25-16.84-10.55h-88.29c-3.74-8-11.74-13.44-21.1-13.44-12.93,0-23.48,10.55-23.48,23.48s10.55,23.31,23.48,23.31c9.36,0,17.35-5.44,21.1-13.44h82.34c.85,5.61,1.36,11.4,1.36,17.18,0,58.52-47.46,105.99-105.99,105.99-35.9,0-67.54-17.69-86.76-44.91h18.2c1.7,6.12,7.32,10.55,13.95,10.55,8,0,14.46-6.29,14.46-14.29s-6.46-14.46-14.46-14.46c-6.63,0-12.25,4.59-13.95,10.72h-42.02c-3.06,6.29-9.53,10.55-17.01,10.55C8.51,170.29,0,161.79,0,151.41s8.51-18.88,18.88-18.88c7.49,0,13.95,4.42,17.01,10.55h88.12c3.74,8,11.74,13.44,21.1,13.44,12.93,0,23.48-10.38,23.48-23.31s-10.55-23.48-23.48-23.48c-9.36,0-17.35,5.44-21.1,13.44H41.68c-.85-5.61-1.36-11.23-1.36-17.01C40.32,47.46,87.78,0,146.48,0h0Z"/>
</svg>